<svg class="icon-svg" xmlns="http://www.w3.org/2000/svg" viewBox="0 0 98.27 98.27" width="15" height="15"><path class="icon-svg-letter" d="M49.135 0C21.998 0 0 21.999 0 49.135S21.998 98.27 49.135 98.27c27.136 0 49.134-21.999 49.134-49.135S76.27 0 49.135 0zm4.099 82.086c-1.539 1.521-3.684 2.293-6.369 2.293-2.746 0-4.918-.754-6.456-2.241-1.545-1.495-2.328-3.604-2.328-6.269 0-2.754.769-4.887 2.284-6.336 1.51-1.44 3.696-2.172 6.5-2.172 2.714 0 4.861.746 6.386 2.219 1.528 1.479 2.304 3.596 2.304 6.289 0 2.603-.782 4.695-2.321 6.217zm15.19-41.791c-1.572 2.511-4.566 5.354-8.9 8.45-2.817 2.083-4.627 3.684-5.355 4.74-.686.995-1.034 2.346-1.034 4.014v1.98a1.5 1.5 0 0 1-1.5 1.5h-10.59a1.5 1.5 0 0 1-1.5-1.5v-2.621c0-3.041.663-5.732 1.972-8 1.296-2.244 3.665-4.638 7.043-7.116 3.135-2.239 5.209-4.06 6.183-5.422a7.395 7.395 0 0 0 1.392-4.369c0-1.742-.615-3.024-1.881-3.92-1.329-.941-3.246-1.419-5.698-1.419-4.252 0-9.173 1.366-14.624 4.061a1.502 1.502 0 0 1-2.008-.676l-4.316-8.67a1.5 1.5 0 0 1 .63-1.988c6.689-3.614 13.864-5.447 21.325-5.447 6.421 0 11.613 1.578 15.434 4.69 3.864 3.15 5.825 7.402 5.825 12.639-.002 3.476-.808 6.528-2.398 9.074z"/></svg>